<?xml version="1.0" encoding="UTF-8" standalone="no"?>
<!-- Created with Inkscape (http://www.inkscape.org/) -->

<svg
   width="90mm"
   height="90mm"
   viewBox="0 0 90 90.000001"
   version="1.1"
   id="svg1"
   sodipodi:docname="logo-petit.svg"
   inkscape:version="1.3.2 (091e20ef0f, 2023-11-25, custom)"
   xmlns:inkscape="http://www.inkscape.org/namespaces/inkscape"
   xmlns:sodipodi="http://sodipodi.sourceforge.net/DTD/sodipodi-0.dtd"
   xmlns="http://www.w3.org/2000/svg"
   xmlns:svg="http://www.w3.org/2000/svg">
  <sodipodi:namedview
     id="namedview1"
     pagecolor="#ffffff"
     bordercolor="#000000"
     borderopacity="0.25"
     inkscape:showpageshadow="2"
     inkscape:pageopacity="0.0"
     inkscape:pagecheckerboard="0"
     inkscape:deskcolor="#d1d1d1"
     inkscape:document-units="mm"
     inkscape:zoom="0.70710678"
     inkscape:cx="-43.133514"
     inkscape:cy="296.27774"
     inkscape:window-width="1920"
     inkscape:window-height="1011"
     inkscape:window-x="0"
     inkscape:window-y="32"
     inkscape:window-maximized="1"
     inkscape:current-layer="layer1" />
  <defs
     id="defs1" />
  <g
     inkscape:label="Calque 1"
     inkscape:groupmode="layer"
     id="layer1"
     transform="translate(62.310177,-16.891661)">
    <rect
       style="fill:#191970;fill-opacity:1;stroke:none;stroke-width:0.499997;stroke-linecap:round;stroke-linejoin:round"
       id="rect4"
       width="90"
       height="90"
       x="-62.310177"
       y="16.891661" />
    <g
       id="g4"
       transform="translate(-107.92583,-22.659721)">
      <path
         id="path1"
         style="fill:#ffffff;fill-opacity:1;stroke:none;stroke-width:0.499999;stroke-linecap:round;stroke-linejoin:round"
         d="m 60.016469,61.457984 c 2.90975,18.728936 1.707129,37.457866 -0.822457,56.186796 0,0 41.309018,-5.70053 38.837467,-32.433337 C 95.933738,62.52179 60.016469,61.457984 60.016469,61.457984 Z m 11.029629,14.428477 c 0,0 14.526253,0.739008 14.36206,14.201787 -0.117909,9.667742 -14.699235,12.454982 -14.699235,12.454982 1.236239,-8.885585 2.069249,-17.771177 0.337175,-26.656769 z"
         sodipodi:nodetypes="ccsccscc" />
      <path
         style="fill:#ffffff;fill-opacity:1;stroke:none;stroke-width:0.499999;stroke-linecap:round;stroke-linejoin:round"
         d="m 104.41566,62.054708 0.0824,-10.582124 8.00673,-0.0146 -0.43854,11.167352 9.97105,-0.304806 -0.134,7.174594 -9.61721,-0.691238 -0.11051,8.447356 -8.67421,-0.392282 0.77654,-7.185349 -10.083898,-0.235508 0.777257,-8.043136 z"
         id="path4" />
    </g>
  </g>
</svg>
