<?xml version="1.0" encoding="UTF-8" standalone="no"?>
<!-- Created with Inkscape (http://www.inkscape.org/) -->

<svg
   width="100mm"
   height="50mm"
   viewBox="0 0 100 50"
   version="1.1"
   id="svg1"
   inkscape:version="1.3.2 (091e20ef0f, 2023-11-25, custom)"
   sodipodi:docname="logo-grand.svg"
   xmlns:inkscape="http://www.inkscape.org/namespaces/inkscape"
   xmlns:sodipodi="http://sodipodi.sourceforge.net/DTD/sodipodi-0.dtd"
   xmlns="http://www.w3.org/2000/svg"
   xmlns:svg="http://www.w3.org/2000/svg">
  <sodipodi:namedview
     id="namedview1"
     pagecolor="#ffffff"
     bordercolor="#000000"
     borderopacity="0.25"
     inkscape:showpageshadow="2"
     inkscape:pageopacity="0.0"
     inkscape:pagecheckerboard="0"
     inkscape:deskcolor="#d1d1d1"
     inkscape:document-units="mm"
     inkscape:zoom="0.70710678"
     inkscape:cx="273.65032"
     inkscape:cy="245.36605"
     inkscape:window-width="1920"
     inkscape:window-height="1011"
     inkscape:window-x="0"
     inkscape:window-y="32"
     inkscape:window-maximized="1"
     inkscape:current-layer="layer1" />
  <defs
     id="defs1" />
  <g
     inkscape:label="Calque 1"
     inkscape:groupmode="layer"
     id="layer1"
     transform="translate(-59.194011,50.491204)">
    <g
       id="g4"
       transform="matrix(0.71428572,0,0,0.71428567,16.912574,-86.241535)"
       style="stroke-width:1.4">
      <path
         id="path1"
         style="fill:#ffffff;fill-opacity:1;stroke:none;stroke-width:0.699999;stroke-linecap:round;stroke-linejoin:round"
         d="m 60.016469,63.863672 c 2.90975,18.728936 1.707129,37.457868 -0.822457,56.186798 0,0 41.309018,-5.70053 38.837467,-32.433339 C 95.933738,64.927478 60.016469,63.863672 60.016469,63.863672 Z m 11.029629,14.428477 c 0,0 14.526253,0.739008 14.36206,14.201787 -0.117909,9.667744 -14.699235,12.454984 -14.699235,12.454984 1.236239,-8.885587 2.069249,-17.771179 0.337175,-26.656771 z"
         sodipodi:nodetypes="ccsccscc" />
      <path
         id="path2"
         style="fill:#ffffff;fill-opacity:1;stroke:none;stroke-width:0.699999;stroke-linecap:round;stroke-linejoin:round"
         d="m 119.20077,78.265226 c -11.24646,-0.02044 -19.14786,11.884654 -18.66361,21.293313 0.49543,9.625961 8.69374,20.106781 18.37207,19.981791 11.34472,-0.1465 16.22181,-12.51997 16.22181,-12.51997 l -7.28133,-0.93941 c 0,0 -3.91173,5.23431 -6.83338,4.86153 -8.99288,-1.14743 -9.04698,-9.01267 -9.04698,-9.01267 0,0 20.5147,1.56615 23.11043,-5.332678 2.71632,-7.219255 -8.13725,-18.317835 -15.87901,-18.331906 z m -0.35819,7.658216 c 5.4865,-0.306163 7.94884,7.474031 7.94884,7.474031 l -16.05099,-0.108521 c 1.02742,-5.153372 5.10631,-7.198332 8.10215,-7.36551 z"
         sodipodi:nodetypes="sssccscsssccs" />
      <path
         id="path3"
         style="fill:#ffffff;fill-opacity:1;stroke:none;stroke-width:0.699999;stroke-linecap:round;stroke-linejoin:round"
         d="m 148.39146,67.654434 -10.49256,0.208515 c 3.17166,14.641288 3.61221,34.275281 1.03782,51.133281 l 10.02921,0.18969 0.78419,-4.78787 c 0,0 7.28706,4.13255 12.20536,3.91249 5.44515,-0.24362 9.41319,-6.44055 9.54632,-11.66846 0.15644,-6.14322 -5.61913,-13.714452 -11.77053,-14.204318 -5.27451,-0.420035 -8.46156,4.5968 -8.46156,4.5968 0.79182,-11.591517 -0.41322,-16.669216 -2.87825,-29.380128 z m 10.51815,33.190966 c 2.39881,0.0789 4.43122,2.24602 4.50226,4.63503 0.0741,2.49636 -2.62341,4.234 -5.11663,4.50421 -2.88016,0.31214 -5.17056,-1.65777 -5.30309,-4.53978 -0.13977,-3.03907 2.86408,-4.69996 5.91746,-4.59946 z"
         sodipodi:nodetypes="cccccsssccsssss" />
      <path
         style="fill:#ffffff;fill-opacity:1;stroke:none;stroke-width:0.699999;stroke-linecap:round;stroke-linejoin:round"
         d="m 176.052,63.96685 0.10821,-13.897214 10.51502,-0.01917 -0.57593,14.665777 13.09471,-0.400293 -0.17597,9.422197 -12.63003,-0.907783 -0.14512,11.09368 -11.3916,-0.515172 1.0198,-9.436322 -13.24296,-0.309287 1.02075,-10.56283 z"
         id="path4" />
    </g>
  </g>
</svg>
