<?xml version="1.0" encoding="UTF-8" standalone="no"?>
<!-- Created with Inkscape (http://www.inkscape.org/) -->

<svg
   width="200mm"
   height="50mm"
   viewBox="0 0 200 50"
   version="1.1"
   id="svg1"
   inkscape:version="1.3.2 (091e20ef0f, 2023-11-25, custom)"
   sodipodi:docname="logo-nouveau.svg"
   xmlns:inkscape="http://www.inkscape.org/namespaces/inkscape"
   xmlns:sodipodi="http://sodipodi.sourceforge.net/DTD/sodipodi-0.dtd"
   xmlns="http://www.w3.org/2000/svg"
   xmlns:svg="http://www.w3.org/2000/svg">
  <sodipodi:namedview
     id="namedview1"
     pagecolor="#ffffff"
     bordercolor="#000000"
     borderopacity="0.25"
     inkscape:showpageshadow="2"
     inkscape:pageopacity="0.0"
     inkscape:pagecheckerboard="0"
     inkscape:deskcolor="#d1d1d1"
     inkscape:document-units="mm"
     inkscape:zoom="0.5"
     inkscape:cx="121"
     inkscape:cy="253"
     inkscape:window-width="1920"
     inkscape:window-height="1011"
     inkscape:window-x="0"
     inkscape:window-y="32"
     inkscape:window-maximized="1"
     inkscape:current-layer="layer1" />
  <defs
     id="defs1" />
  <g
     inkscape:label="Calque 1"
     inkscape:groupmode="layer"
     id="layer1"
     transform="translate(-59.897615,49.850348)">
    <path
       id="path1"
       style="fill:#ffffff;fill-opacity:1;stroke:none;stroke-width:0.499999;stroke-linecap:round;stroke-linejoin:round"
       d="m 60.576075,-49.850348 c 2.400306,16.214644 1.408243,32.429286 -0.67846,48.6439258 0,0 34.076557,-4.9352547 32.03773,-28.0792828 -1.730464,-19.64365 -31.35927,-20.564643 -31.35927,-20.564643 z m 9.09854,12.491506 c 0,0 11.982969,0.639799 11.847525,12.295249 -0.09727,8.369885 -12.125666,10.782949 -12.125666,10.782949 1.019796,-7.69273 1.706961,-15.385464 0.278141,-23.078198 z"
       sodipodi:nodetypes="ccsccscc" />
    <path
       id="path2"
       style="fill:#ffffff;fill-opacity:1;stroke:none;stroke-width:0.499999;stroke-linecap:round;stroke-linejoin:round"
       d="m 109.39827,-37.382151 c -9.2774,-0.0177 -15.795411,10.289183 -15.395943,18.434765 0.408688,8.33371 7.171623,17.4075188 15.155453,17.2993082 9.35847,-0.1268329 13.38167,-10.8392102 13.38167,-10.8392102 l -6.0065,-0.813298 c 0,0 -3.22687,4.5316238 -5.63699,4.2088882 -7.41839,-0.9933922 -7.46301,-7.8027522 -7.46301,-7.8027522 0,0 16.92295,1.3559 19.06421,-4.616786 2.24075,-6.250096 -6.71256,-15.858732 -13.09889,-15.870915 z m -0.29547,6.630129 c 4.52592,-0.265062 6.55714,6.47067 6.55714,6.47067 l -13.24075,-0.09396 c 0.84754,-4.461551 4.21228,-6.231983 6.68361,-6.376718 z"
       sodipodi:nodetypes="sssccscsssccs" />
    <path
       id="path3"
       style="fill:#ffffff;fill-opacity:1;stroke:none;stroke-width:0.499999;stroke-linecap:round;stroke-linejoin:round"
       d="m 133.47821,-46.568482 -8.6555,0.180522 c 2.61635,12.675749 2.97977,29.67395 0.85611,44.2688257 l 8.27328,0.1642248 0.6469,-4.145116 c 0,0 6.01122,3.5777702 10.06842,3.3872525 4.49179,-0.2109148 7.76511,-5.5759297 7.87492,-10.102011 0.12906,-5.318516 -4.63531,-11.873338 -9.70972,-12.297441 -4.35104,-0.363647 -6.98009,3.979696 -6.98009,3.979696 0.65318,-10.035398 -0.34088,-14.431435 -2.37432,-25.435953 z m 8.67661,28.7352 c 1.97882,0.06831 3.6554,1.9445 3.714,4.012795 0.0611,2.161232 -2.16411,3.6656 -4.22081,3.8995357 -2.37589,0.2702363 -4.26528,-1.4352207 -4.37461,-3.9303317 -0.11526,-2.631086 2.36263,-4.069008 4.88142,-3.981999 z"
       sodipodi:nodetypes="cccccsssccsssss" />
    <path
       id="path4"
       style="fill:#ffffff;fill-opacity:1;stroke-width:0.499999;stroke-linecap:round;stroke-linejoin:round"
       d="m 158.82556,-49.235268 c 1.85744,16.555414 0.15735,31.925008 -0.73406,47.5641563 l 6.89356,0.139049 c 1.62739,-7.1769014 2.44707,-13.8727443 2.75456,-21.4502163 0,0 19.09314,-5.905339 19.50035,-14.103739 0.79024,-15.909972 -28.41441,-12.14925 -28.41441,-12.14925 z m 9.07037,7.425118 c 0,0 10.09125,0.277511 10.19325,4.918926 0.102,4.641415 -10.13561,5.460679 -10.13561,5.460679 z"
       sodipodi:nodetypes="ccccscczcc" />
    <path
       style="fill:#ffffff;fill-opacity:1;stroke-width:0.499999;stroke-linecap:round;stroke-linejoin:round"
       d="m 191.24558,-49.399328 c 0.41624,16.210332 -0.7675,32.636603 -2.09028,48.1858977 l 7.9973,-0.281029 c 2.25914,-15.6662147 2.72401,-31.7570367 1.4709,-47.9617657 z"
       id="path5"
       sodipodi:nodetypes="ccccc" />
    <path
       style="fill:#ffffff;fill-opacity:1;stroke-width:0.5;stroke-linecap:round;stroke-linejoin:round"
       d="m 204.29314,-30.399312 c -0.47142,17.707952 4.23564,29.33824 12.2559,29.5458053 5.9761,0.1546622 8.83802,-7.2389514 9.14587,-10.6461063 l -0.37839,11.0345214 6.70272,0.6147418 0.12749,-30.8610642 -7.27784,0.721831 c -0.40058,13.235731 -4.59975,18.222408 -7.59087,18.511871 -3.26447,0.315915 -6.18915,-7.503497 -6.36029,-19.363479 z"
       id="path6"
       sodipodi:nodetypes="cscccccscc" />
    <path
       style="fill:#ffffff;fill-opacity:1;stroke-width:0.499999;stroke-linecap:round;stroke-linejoin:round"
       d="m 258.68693,-30.739817 c -8.07778,0.113206 -22.16325,3.143739 -21.66848,9.925455 0.49634,6.803609 13.36388,5.397091 13.01633,10.786524 -0.28934,4.4869069 -13.47017,1.9422249 -13.47017,1.9422249 l 0.15277,7.16993 c 12.01733,-0.095308 23.49898,0.7712211 23.17347,-10.3365099 -0.1568,-5.350623 -12.94043,-5.017705 -11.7928,-10.233601 0.71749,-3.260893 11.32261,-2.362902 11.32261,-2.362902 z"
       id="path7"
       sodipodi:nodetypes="cssccsscc" />
  </g>
</svg>
